<svg width="136" height="23" viewBox="0 0 136 23" fill="none" xmlns="http://www.w3.org/2000/svg">
<path d="M10.032 18.288C8.32 18.288 6.768 17.92 5.376 17.184C4 16.432 2.912 15.4 2.112 14.088C1.328 12.76 0.936 11.264 0.936 9.6C0.936 7.936 1.328 6.448 2.112 5.136C2.912 3.808 4 2.776 5.376 2.04C6.768 1.288 8.328 0.912 10.056 0.912C11.512 0.912 12.824 1.168 13.992 1.68C15.176 2.192 16.168 2.928 16.968 3.888L14.472 6.192C13.336 4.88 11.928 4.224 10.248 4.224C9.208 4.224 8.28 4.456 7.464 4.92C6.648 5.368 6.008 6 5.544 6.816C5.096 7.632 4.872 8.56 4.872 9.6C4.872 10.64 5.096 11.568 5.544 12.384C6.008 13.2 6.648 13.84 7.464 14.304C8.28 14.752 9.208 14.976 10.248 14.976C11.928 14.976 13.336 14.312 14.472 12.984L16.968 15.288C16.168 16.264 15.176 17.008 13.992 17.52C12.808 18.032 11.488 18.288 10.032 18.288ZM22.9056 6.792C23.3536 6.168 23.9536 5.696 24.7056 5.376C25.4736 5.056 26.3536 4.896 27.3456 4.896V8.352C26.9296 8.32 26.6496 8.304 26.5056 8.304C25.4336 8.304 24.5936 8.608 23.9856 9.216C23.3776 9.808 23.0736 10.704 23.0736 11.904V18H19.3296V5.088H22.9056V6.792ZM42.8331 5.088L37.0011 18.792C36.4091 20.28 35.6731 21.328 34.7931 21.936C33.9291 22.544 32.8811 22.848 31.6491 22.848C30.9771 22.848 30.3131 22.744 29.6571 22.536C29.0011 22.328 28.4651 22.04 28.0491 21.672L29.4171 19.008C29.7051 19.264 30.0331 19.464 30.4011 19.608C30.7851 19.752 31.1611 19.824 31.5291 19.824C32.0411 19.824 32.4571 19.696 32.7771 19.44C33.0971 19.2 33.3851 18.792 33.6411 18.216L33.6891 18.096L28.0971 5.088H31.9611L35.5851 13.848L39.2331 5.088H42.8331ZM51.9928 4.896C53.1928 4.896 54.2808 5.176 55.2568 5.736C56.2488 6.28 57.0248 7.056 57.5848 8.064C58.1448 9.056 58.4248 10.216 58.4248 11.544C58.4248 12.872 58.1448 14.04 57.5848 15.048C57.0248 16.04 56.2488 16.816 55.2568 17.376C54.2808 17.92 53.1928 18.192 51.9928 18.192C50.3448 18.192 49.0488 17.672 48.1048 16.632V22.656H44.3608V5.088H47.9368V6.576C48.8648 5.456 50.2168 4.896 51.9928 4.896ZM51.3448 15.12C52.3048 15.12 53.0888 14.8 53.6968 14.16C54.3208 13.504 54.6328 12.632 54.6328 11.544C54.6328 10.456 54.3208 9.592 53.6968 8.952C53.0888 8.296 52.3048 7.968 51.3448 7.968C50.3848 7.968 49.5928 8.296 48.9688 8.952C48.3608 9.592 48.0568 10.456 48.0568 11.544C48.0568 12.632 48.3608 13.504 48.9688 14.16C49.5928 14.8 50.3848 15.12 51.3448 15.12ZM69.2591 17.376C68.8911 17.648 68.4351 17.856 67.8911 18C67.3631 18.128 66.8031 18.192 66.2111 18.192C64.6751 18.192 63.4831 17.8 62.6351 17.016C61.8031 16.232 61.3871 15.08 61.3871 13.56V8.256H59.3951V5.376H61.3871V2.232H65.1311V5.376H68.3471V8.256H65.1311V13.512C65.1311 14.056 65.2671 14.48 65.5391 14.784C65.8271 15.072 66.2271 15.216 66.7391 15.216C67.3311 15.216 67.8351 15.056 68.2511 14.736L69.2591 17.376ZM77.1064 18.192C75.7464 18.192 74.5224 17.912 73.4344 17.352C72.3624 16.776 71.5224 15.984 70.9144 14.976C70.3064 13.968 70.0024 12.824 70.0024 11.544C70.0024 10.264 70.3064 9.12 70.9144 8.112C71.5224 7.104 72.3624 6.32 73.4344 5.76C74.5224 5.184 75.7464 4.896 77.1064 4.896C78.4664 4.896 79.6824 5.184 80.7544 5.76C81.8264 6.32 82.6664 7.104 83.2744 8.112C83.8824 9.12 84.1864 10.264 84.1864 11.544C84.1864 12.824 83.8824 13.968 83.2744 14.976C82.6664 15.984 81.8264 16.776 80.7544 17.352C79.6824 17.912 78.4664 18.192 77.1064 18.192ZM77.1064 15.12C78.0664 15.12 78.8504 14.8 79.4584 14.16C80.0824 13.504 80.3944 12.632 80.3944 11.544C80.3944 10.456 80.0824 9.592 79.4584 8.952C78.8504 8.296 78.0664 7.968 77.1064 7.968C76.1464 7.968 75.3544 8.296 74.7304 8.952C74.1064 9.592 73.7944 10.456 73.7944 11.544C73.7944 12.632 74.1064 13.504 74.7304 14.16C75.3544 14.8 76.1464 15.12 77.1064 15.12ZM97.5482 14.4H89.7482L88.2602 18H84.2762L91.7642 1.2H95.6042L103.116 18H99.0362L97.5482 14.4ZM96.3242 11.448L93.6602 5.016L90.9962 11.448H96.3242ZM112.227 4.896C113.427 4.896 114.515 5.176 115.491 5.736C116.483 6.28 117.259 7.056 117.819 8.064C118.379 9.056 118.659 10.216 118.659 11.544C118.659 12.872 118.379 14.04 117.819 15.048C117.259 16.04 116.483 16.816 115.491 17.376C114.515 17.92 113.427 18.192 112.227 18.192C110.579 18.192 109.283 17.672 108.339 16.632V22.656H104.595V5.088H108.171V6.576C109.099 5.456 110.451 4.896 112.227 4.896ZM111.579 15.12C112.539 15.12 113.323 14.8 113.931 14.16C114.555 13.504 114.867 12.632 114.867 11.544C114.867 10.456 114.555 9.592 113.931 8.952C113.323 8.296 112.539 7.968 111.579 7.968C110.619 7.968 109.827 8.296 109.203 8.952C108.595 9.592 108.291 10.456 108.291 11.544C108.291 12.632 108.595 13.504 109.203 14.16C109.827 14.8 110.619 15.12 111.579 15.12ZM128.798 4.896C129.998 4.896 131.086 5.176 132.062 5.736C133.054 6.28 133.83 7.056 134.39 8.064C134.95 9.056 135.23 10.216 135.23 11.544C135.23 12.872 134.95 14.04 134.39 15.048C133.83 16.04 133.054 16.816 132.062 17.376C131.086 17.92 129.998 18.192 128.798 18.192C127.15 18.192 125.854 17.672 124.91 16.632V22.656H121.166V5.088H124.742V6.576C125.67 5.456 127.022 4.896 128.798 4.896ZM128.15 15.12C129.11 15.12 129.894 14.8 130.502 14.16C131.126 13.504 131.438 12.632 131.438 11.544C131.438 10.456 131.126 9.592 130.502 8.952C129.894 8.296 129.11 7.968 128.15 7.968C127.19 7.968 126.398 8.296 125.773 8.952C125.166 9.592 124.862 10.456 124.862 11.544C124.862 12.632 125.166 13.504 125.773 14.16C126.398 14.8 127.19 15.12 128.15 15.12Z" fill="url(#paint0_linear)"/>
<defs>
<linearGradient id="paint0_linear" x1="44.0783" y1="-5" x2="64.2566" y2="26.701" gradientUnits="userSpaceOnUse">
<stop stop-color="#FF1EDE"/>
<stop offset="1" stop-color="#89E5EE"/>
</linearGradient>
</defs>
</svg>
